<?xml version="1.0" encoding="UTF-8" standalone="no"?>
<!-- Created with Inkscape (http://www.inkscape.org/) -->

<svg
   width="108.08736mm"
   height="53.75943mm"
   viewBox="0 0 108.08736 53.75943"
   version="1.1"
   id="svg5"
   xmlns="http://www.w3.org/2000/svg"
   xmlns:svg="http://www.w3.org/2000/svg">
  <defs
     id="defs2" />
  <g
     id="layer1"
     transform="translate(-52.997819,-111.71972)">
    <path
       d="m 64.600566,138.36707 c 0,5.80136 0.902439,10.27485 2.707317,13.42051 1.804874,3.14562 4.499291,4.71844 8.083252,4.71844 4.176993,0 7.970834,-0.10701 5.729093,-9.66796 l 8.542275,0.007 c 8.32187,12.93258 -4.512166,18.63409 -14.387396,18.63409 -7.245275,0 -12.775921,-2.29478 -16.591937,-6.88428 -3.790234,-4.61533 -5.685352,-11.35781 -5.685352,-20.22747 0,-17.76511 7.322628,-26.64768 21.967884,-26.64768 4.7958,0 8.80519,1.26342 12.028171,3.79023 3.24878,2.52684 6.88791,3.87049 2.66863,13.87037 l -9.212573,-0.0631 c 0.739245,-1.89589 1.829826,-4.71166 -0.185621,-6.34282 -1.49547,-1.52128 -3.210098,-2.2819 -5.14389,-2.2819 -7.013224,0 -10.519834,5.89162 -10.519834,17.67488 z"
       id="path4808"
       style="font-weight:bold;font-size:85.3333px;font-family:'Liberation Mono';-inkscape-font-specification:'Liberation Mono Bold';white-space:pre;fill:#00d1b2;stroke-width:0.928219" />
    <path
       d="m 128.87977,138.21236 c 0,8.50869 -1.98535,15.0578 -5.95606,19.6473 -3.9707,4.56377 -9.63026,6.84566 -16.97867,6.84566 H 81.253242 l 8.409261,-5.28137 v -41.41261 l -8.542276,-5.47976 h 22.504263 c 8.45712,0 14.77416,2.12718 18.95114,6.38151 4.20278,4.22858 6.30414,10.66168 6.30414,19.29927 z m -11.48668,0 c 0,-5.85297 -1.10871,-10.12017 -3.32612,-12.8017 -2.19163,-2.70734 -5.73691,-4.06099 -10.63585,-4.06099 h -2.35922 v 34.53757 h 3.94491 c 8.25085,0 12.37628,-5.89164 12.37628,-17.67488 z"
       id="path4805"
       style="font-weight:bold;font-size:85.3333px;font-family:'Liberation Mono';-inkscape-font-specification:'Liberation Mono Bold';white-space:pre;fill:#00d1b2;stroke-width:0.928219" />
    <path
       d="m 145.13841,120.67503 v 44.03029 h -11.5869 v -44.03029 h -15.9467 l -40.84347,-8.95529 h 84.32383 v 8.95529 z"
       id="path4802"
       style="font-weight:bold;font-size:85.3333px;font-family:'Liberation Mono';-inkscape-font-specification:'Liberation Mono Bold';white-space:pre;fill:#00d1b2;stroke-width:0.942663" />
  </g>
</svg>
